<svg width="14" height="14" viewBox="0 0 14 14" fill="none" xmlns="http://www.w3.org/2000/svg">
<path d="M6.92482 0.333954C5.6318 0.336411 4.36741 0.714828 3.28564 1.42311C2.20387 2.1314 1.35141 3.13898 0.832111 4.32313C0.312808 5.50729 0.149068 6.8169 0.360834 8.09246C0.572601 9.36802 1.15074 10.5545 2.02482 11.5073C2.6491 12.184 3.40678 12.724 4.25011 13.0934C5.09344 13.4628 6.00414 13.6535 6.92482 13.6535C7.8455 13.6535 8.7562 13.4628 9.59953 13.0934C10.4429 12.724 11.2005 12.184 11.8248 11.5073C12.6989 10.5545 13.277 9.36802 13.4888 8.09246C13.7006 6.8169 13.5368 5.50729 13.0175 4.32313C12.4982 3.13898 11.6458 2.1314 10.564 1.42311C9.48223 0.714828 8.21783 0.336411 6.92482 0.333954ZM6.92482 12.334C5.54379 12.3319 4.21743 11.7941 3.22482 10.834C3.52618 10.1003 4.03884 9.47282 4.69765 9.03121C5.35647 8.58961 6.13169 8.35382 6.92482 8.35382C7.71795 8.35382 8.49317 8.58961 9.15198 9.03121C9.8108 9.47282 10.3235 10.1003 10.6248 10.834C9.63221 11.7941 8.30584 12.3319 6.92482 12.334ZM5.59149 5.66729C5.59149 5.40358 5.66968 5.14579 5.81619 4.92653C5.9627 4.70726 6.17094 4.53637 6.41457 4.43545C6.65821 4.33453 6.9263 4.30813 7.18494 4.35957C7.44358 4.41102 7.68116 4.53801 7.86763 4.72448C8.0541 4.91095 8.18109 5.14853 8.23253 5.40717C8.28398 5.66581 8.25757 5.9339 8.15666 6.17753C8.05574 6.42117 7.88484 6.62941 7.66558 6.77591C7.44631 6.92242 7.18853 7.00062 6.92482 7.00062C6.5712 7.00062 6.23206 6.86015 5.98201 6.6101C5.73196 6.36005 5.59149 6.02091 5.59149 5.66729ZM11.5315 9.66729C10.9358 8.64846 10.0191 7.85597 8.92482 7.41396C9.26426 7.02906 9.48544 6.55439 9.5618 6.04691C9.63816 5.53943 9.56647 5.0207 9.35532 4.55295C9.14417 4.08521 8.80254 3.68833 8.37142 3.40993C7.9403 3.13154 7.43801 2.98345 6.92482 2.98345C6.41162 2.98345 5.90933 3.13154 5.47821 3.40993C5.04709 3.68833 4.70546 4.08521 4.49432 4.55295C4.28317 5.0207 4.21148 5.53943 4.28784 6.04691C4.3642 6.55439 4.58537 7.02906 4.92482 7.41396C3.83055 7.85597 2.9138 8.64846 2.31815 9.66729C1.84345 8.85869 1.59263 7.93827 1.59148 7.00062C1.59148 5.58613 2.15339 4.22958 3.15358 3.22939C4.15378 2.22919 5.51033 1.66729 6.92482 1.66729C8.33931 1.66729 9.69586 2.22919 10.6961 3.22939C11.6962 4.22958 12.2582 5.58613 12.2582 7.00062C12.257 7.93827 12.0062 8.85869 11.5315 9.66729Z" fill="#555656"/>
</svg>
