<svg width="18" height="16" viewBox="0 0 18 16" fill="none" xmlns="http://www.w3.org/2000/svg">
<path d="M5.24999 15.9167C3.96175 15.9114 2.8277 15.0663 2.45416 13.8334H0.666656V12.1667H2.45416C2.88324 10.7276 4.33502 9.84944 5.80891 10.1376C7.28279 10.4258 8.29693 11.786 8.15236 13.2808C8.0078 14.7757 6.75178 15.9164 5.24999 15.9167ZM5.24999 11.7501C4.55963 11.7501 3.99999 12.3097 3.99999 13.0001C3.99999 13.6904 4.55963 14.2501 5.24999 14.2501C5.94035 14.2501 6.49999 13.6904 6.49999 13.0001C6.49999 12.3097 5.94035 11.7501 5.24999 11.7501ZM17.3333 13.8334H8.99999V12.1667H17.3333V13.8334ZM12.75 10.9167C11.2482 10.9164 9.99219 9.77566 9.84762 8.28085C9.70305 6.78603 10.7172 5.42578 12.1911 5.13761C13.665 4.84944 15.1167 5.72755 15.5458 7.16674H17.3333V8.83341H15.5458C15.1723 10.0663 14.0382 10.9114 12.75 10.9167ZM12.75 6.75008C12.0596 6.75008 11.5 7.30972 11.5 8.00008C11.5 8.69043 12.0596 9.25008 12.75 9.25008C13.4403 9.25008 14 8.69043 14 8.00008C14 7.30972 13.4403 6.75008 12.75 6.75008ZM8.99999 8.83341H0.666656V7.16674H8.99999V8.83341ZM6.91666 5.91674C5.41487 5.91636 4.15885 4.77566 4.01428 3.28085C3.86972 1.78603 4.88386 0.425781 6.35774 0.13761C7.83163 -0.150561 9.28341 0.727555 9.71249 2.16674H17.3333V3.83341H9.71249C9.33871 5.06615 8.2048 5.91109 6.91666 5.91674ZM6.91666 1.75008C6.23497 1.751 5.67972 2.29793 5.66852 2.97953C5.65731 3.66112 6.19428 4.22601 6.87557 4.24934C7.55685 4.27267 8.13121 3.74584 8.16666 3.06508V3.30674V3.00008C8.16666 2.30972 7.60701 1.75008 6.91666 1.75008ZM3.16666 3.83341H0.666656V2.16674H3.16666V3.83341Z" fill="#292D32"/>
</svg>
